<svg xmlns="http://www.w3.org/2000/svg" viewBox="0 0 255 15"><path fill="#fff" d="m118.73 14.744.838-2.784h4.801l.838 2.784h4.262L124.668.199h-5.398l-4.801 14.545zm1.733-5.739 1.449-4.8h.114l1.449 4.8zm10.407 5.739h3.949V9.943h1.363l2.557 4.801h4.29l-2.955-5.426c1.549-.746 2.472-2.16 2.472-4.176 0-3.097-2.166-4.943-5.398-4.943h-6.278zm3.949-7.87V3.353h1.392c1.385 0 2.216.54 2.216 1.79 0 1.243-.831 1.733-2.216 1.733zm9.011-3.494h4.375v11.365h3.892V3.38h4.375V.198H143.83zM171.39 5h3.991c-.305-2.92-2.954-5-6.392-5-3.92 0-7.102 2.699-7.102 7.5 0 4.602 2.884 7.443 7.131 7.443 3.807 0 6.534-2.33 6.534-6.307V6.62h-6.449v2.813h2.642c-.035 1.264-.93 2.074-2.699 2.074-2.045 0-3.096-1.506-3.096-4.063 0-2.521 1.136-4.005 3.125-4.005 1.235 0 2.074.568 2.315 1.562m9.33 9.743.838-2.784h4.802l.838 2.784h4.261L186.658.199h-5.398l-4.801 14.545zm1.733-5.739 1.449-4.8h.114l1.449 4.8zm10.407 5.739h9.83v-3.182h-5.881V.198h-3.949zm11.43 0h9.829v-3.182h-5.88V.198h-3.949zm11.43 0h10.454v-3.182h-6.506v-2.5h5.995V5.88h-5.995v-2.5h6.534V.2H215.72zm12.44 0h3.949V9.943h1.363l2.557 4.801h4.29l-2.955-5.426c1.549-.746 2.472-2.16 2.472-4.176 0-3.097-2.166-4.943-5.398-4.943h-6.278zm3.949-7.87V3.353h1.392c1.385 0 2.216.54 2.216 1.79 0 1.243-.831 1.733-2.216 1.733zM240.24.199l5.341 9.971v4.574h3.92V10.17L254.842.2h-4.403l-2.841 5.909h-.114l-2.84-5.91zm-131.18 0v14.545h-3.296l-5.255-7.642h-.085v7.642h-3.95V.199h3.353l5.17 7.613h.114V.2zM84.03 14.744V.199h10.483v3.182h-6.534v2.5h5.994v3.182H87.98v2.5h6.506v3.181zM69.902 3.38V.2h12.642v3.18h-4.375v11.364h-3.892V3.38zM57.858 14.744V.199h10.483v3.182h-6.534v2.5h5.994v3.182h-5.994v2.5h6.506v3.181zm-11.426 0V.199h3.949v11.364h5.88v3.182zm-13.125 0V.199h6.278q1.62 0 2.834.64 1.215.638 1.89 1.796c.674 1.158.674 1.674.674 2.706q0 1.563-.696 2.706a4.57 4.57 0 0 1-1.939 1.761q-1.243.618-2.905.618h-3.75V7.358h2.955q.696 0 1.186-.241.497-.249.76-.703.27-.454.27-1.073 0-.625-.27-1.065a1.7 1.7 0 0 0-.76-.682q-.49-.24-1.186-.241h-1.392v11.392zM31.436.199v14.545h-3.949V.199zM14.128 14.744V.199h6.278q1.62 0 2.834.59 1.215.588 1.89 1.697t.674 2.656q0 1.563-.696 2.635-.69 1.072-1.939 1.62-1.242.546-2.905.546h-3.75V6.875h2.955q.696 0 1.186-.17a1.5 1.5 0 0 0 .76-.562q.27-.383.27-1.001 0-.625-.27-1.016a1.5 1.5 0 0 0-.76-.582q-.49-.192-1.186-.192h-1.392v11.392zm8.523-6.676 3.636 6.676h-4.29l-3.55-6.676zM0 3.38V.2h12.642v3.18H8.267v11.364H4.375V3.38z"/></svg>